<svg width="80" height="44" viewBox="0 0 80 44" fill="none" xmlns="http://www.w3.org/2000/svg">
<path fill-rule="evenodd" clip-rule="evenodd" d="M70.3872 32.9232C70.0327 32.9889 69.7262 33.0361 69.4679 33.0649C69.2092 33.0934 68.9176 33.1096 68.5928 33.1135C68.5987 33.6149 68.6092 34.0497 68.6235 34.418C68.6381 34.7861 68.6523 35.1338 68.6663 35.4609C68.6755 36.2386 68.6611 36.9806 68.6239 37.6873C68.5867 38.3935 68.5266 39.1106 68.4438 39.8382L67.6827 39.8472C67.1144 39.8539 66.597 39.8474 66.1296 39.8274C65.6626 39.8076 65.1189 39.7604 64.4989 39.6859C64.4957 39.3993 64.4875 39.1489 64.4748 38.9341C64.4116 37.8707 64.3785 37.2162 64.3756 36.9706C64.3591 35.5792 64.3952 34.3406 64.484 33.2549L62.3965 33.1111C62.3768 31.4537 62.4684 30.1787 62.671 29.286C63.4213 29.2054 64.0499 29.1544 64.5571 29.1328C65.0644 29.1115 65.5718 29.0977 66.0793 29.0916C66.6474 29.0847 67.2794 29.0975 67.975 29.1302C68.6707 29.163 69.4298 29.1948 70.2522 29.2258C70.3187 29.6957 70.3643 30.1277 70.3892 30.5212C70.4142 30.915 70.4288 31.2855 70.4329 31.6334C70.4361 31.8994 70.4309 32.1528 70.419 32.3934C70.4065 32.6338 70.396 32.8105 70.3872 32.9232ZM62.049 39.7767C61.8156 39.7793 61.4072 39.7972 60.824 39.8296C60.2407 39.8623 59.8881 39.8792 59.7664 39.8807C59.4111 39.8847 59.1092 39.8787 58.8604 39.861C58.6114 39.8436 58.3397 39.8161 58.0449 39.7786C57.8908 38.7674 57.7762 37.8735 57.7009 37.0966C57.626 36.3201 57.5853 35.6655 57.5791 35.1334L56.2242 35.1496C56.2357 36.1166 56.3036 37.1517 56.4285 38.2528C56.4515 38.4982 56.5132 38.9937 56.6132 39.7344C56.1979 39.8007 55.6099 39.8538 54.849 39.8937C54.0884 39.9334 53.2867 39.9583 52.4445 39.9685C52.259 38.8834 52.1088 37.7495 51.9933 36.564C51.8777 35.3809 51.8134 34.2305 51.8003 33.1101C51.7917 32.3837 51.799 31.721 51.8226 31.1247C51.846 30.5311 51.8943 29.8935 51.9673 29.2147C52.4033 29.1686 52.8443 29.13 53.2907 29.0992C53.7369 29.0681 54.244 29.0492 54.8123 29.0423C55.056 29.0391 55.2944 29.0391 55.5279 29.0417C55.7615 29.0437 56.0408 29.0686 56.3662 29.1159C56.2671 29.7518 56.2036 30.1719 56.173 30.3769C56.0962 30.9611 56.0603 31.5909 56.0684 32.2661C56.2207 32.2641 56.4616 32.2615 56.7916 32.2574C57.1213 32.2535 57.3724 32.2503 57.545 32.2483C57.5398 31.8135 57.5745 31.3091 57.6488 30.7353C57.7234 30.1615 57.8339 29.646 57.9833 29.1885C58.3286 29.1846 58.6961 29.1598 59.0814 29.1143C59.469 29.0686 59.7123 29.0452 59.8137 29.0439C60.6078 29.0345 61.301 29.0773 61.8935 29.1726C61.7348 30.3613 61.6385 31.2247 61.6042 31.7623C61.5698 32.2999 61.5584 33.0393 61.5694 33.9807C61.5827 35.1059 61.6164 36.019 61.6704 36.7191C61.7243 37.4195 61.8504 38.4384 62.049 39.7767ZM50.6163 39.8677C50.0286 39.9566 49.4357 40.02 48.8373 40.0578C48.239 40.0957 47.5592 40.119 46.7978 40.1283C46.3211 40.1342 45.8644 40.129 45.4277 40.114C44.128 40.0682 43.4223 40.0459 43.3107 40.0474C43.1791 39.2098 43.0658 38.2186 42.9711 37.0736C42.8763 35.9288 42.8235 34.8959 42.8128 33.9751C42.8017 33.044 42.8317 32.1533 42.9032 31.3033C42.9476 30.7707 43.0214 30.1661 43.1251 29.4896C43.6317 29.4118 44.121 29.36 44.5926 29.3338C45.0641 29.3078 45.5892 29.2909 46.1677 29.2843C47.142 29.2724 47.8981 29.2763 48.4362 29.2954C48.9743 29.3145 49.6399 29.3754 50.4328 29.4786C50.3869 29.8885 50.3544 30.3495 50.335 30.8613C50.3157 31.3731 50.3083 31.8285 50.3129 32.2274L50.3205 32.857C50.2393 32.8576 50.0288 32.8524 49.6885 32.8414C49.3484 32.83 49.0717 32.8205 48.8583 32.813C48.544 32.8169 48.2191 32.8334 47.8847 32.863C47.5499 32.8926 47.2664 32.9239 47.033 32.9575L47.1127 34.5375L47.0721 36.2569L48.153 36.244C48.5893 36.2388 48.9799 36.2241 49.3246 36.1994C49.6695 36.1747 50.0292 36.1296 50.4039 36.0637C50.4059 36.2375 50.4052 36.4066 50.4026 36.5701C50.3993 36.734 50.3987 36.8976 50.4007 37.0613C50.4059 37.4911 50.4233 37.9181 50.4537 38.3425C50.4841 38.7667 50.5384 39.2751 50.6163 39.8677ZM50.2812 34.6993C49.8577 34.9293 49.439 35.1338 49.0248 35.313C48.6108 35.4918 48.1867 35.6553 47.7518 35.8038C47.6892 35.6512 47.5949 35.3913 47.4685 35.0245C47.3844 34.7798 47.3002 34.5303 47.2162 34.2754C47.9818 33.7853 48.8145 33.4018 49.7148 33.125C49.8187 33.3489 49.9154 33.5754 50.0043 33.8047C50.0932 34.0337 50.1857 34.3319 50.2812 34.6993ZM42.0843 38.0514C42.0928 38.7676 42.0467 39.589 41.946 40.5165C41.8452 41.4438 41.7136 42.3278 41.551 43.169C40.9318 43.1764 40.3634 43.1548 39.8452 43.1049C39.3268 43.0546 38.3814 42.9152 37.0083 42.6861C37.1148 42.2449 37.2059 41.7935 37.2818 41.3322C37.3573 40.8709 37.414 40.5068 37.4516 40.2402C36.6886 40.106 35.9568 40.0127 35.2559 39.9598C34.2095 39.8801 32.91 39.8497 31.3573 39.8683C31.2164 39.0923 31.1014 38.178 31.0129 37.125C30.9243 36.0721 30.8741 35.0391 30.8622 34.0263C30.8541 33.3509 30.8642 32.6781 30.8915 32.0076C30.9193 31.3371 30.9882 30.52 31.0987 29.5569C31.8081 29.4666 32.5281 29.417 33.2588 29.4083C33.7256 29.4024 34.1672 29.4129 34.5837 29.4383C35.0002 29.464 35.4219 29.5154 35.8491 29.5921C35.7386 30.5452 35.6616 31.5435 35.618 32.5879C35.5745 33.6321 35.5596 34.7323 35.5732 35.8885C36.9535 35.8719 38.0755 35.9199 38.9395 36.0323C39.8036 36.1448 40.8212 36.3678 41.9924 36.7016C42.0255 36.9366 42.0482 37.1334 42.0602 37.2919C42.0722 37.4505 42.0802 37.7035 42.0843 38.0514ZM40.5877 29.919C40.4251 31.6197 40.321 32.685 40.2754 33.1154C40.1658 34.1603 40.0492 35.0213 39.9253 35.6982C39.4992 35.7034 39.0008 35.6427 38.4311 35.5165C37.8612 35.3902 37.2344 35.1677 36.5505 34.8483C36.5164 34.5418 36.4975 34.2249 36.4936 33.8975C36.4849 33.1608 36.5599 32.4103 36.7183 31.646C36.8767 30.8819 37.1481 30.0064 37.5322 29.0194C38.295 29.1536 39.3137 29.4534 40.5877 29.919ZM29.7452 28.3913C29.7566 29.353 29.7448 30.5249 29.7103 31.9066C29.6759 33.2885 29.6445 34.7035 29.6159 36.1517C29.5874 37.5999 29.5805 38.9584 29.5955 40.2271L29.0931 40.233L28.6517 40.2382L28.2712 40.2428L27.9516 40.2468L27.6622 40.25L27.4188 40.2533L27.2056 40.2559L27.0227 40.2579C26.8402 40.2598 26.6549 40.2598 26.4672 40.2565C26.2794 40.2539 26.0941 40.2533 25.9115 40.2553L25.7592 40.2572L25.8246 38.0614C24.6383 39.0171 23.6422 39.7504 22.8362 40.2615C22.0807 40.7412 21.2836 41.1551 20.4453 41.5026C20.4408 41.114 20.4197 40.6179 20.382 40.0148C20.2947 38.6139 20.2477 37.6629 20.2418 37.1614C20.2188 35.2174 20.245 33.5749 20.3207 32.2336C20.3715 31.3736 20.4529 30.5231 20.5647 29.6825C21.3546 29.5403 22.115 29.4646 22.8457 29.4559C23.14 29.4526 23.3685 29.4545 23.531 29.4629C23.6934 29.4712 23.9322 29.4889 24.2469 29.5156C24.2521 29.9352 24.2411 30.2987 24.2142 30.6057C24.1518 31.3333 24.1208 31.7173 24.1214 31.7582C24.7876 31.4433 25.4684 31.0896 26.1642 30.6976C26.8597 30.3057 27.4644 29.9428 27.9782 29.6092C28.2804 29.4112 28.8694 29.0054 29.7452 28.3913ZM18.9371 36.2722C18.9441 36.8553 18.9403 37.3719 18.9249 37.8225C18.8728 39.4092 18.8476 40.2995 18.85 40.494C17.0232 40.516 15.5664 40.4668 14.4788 40.3468C14.4705 39.6408 14.4543 39.1192 14.43 38.7819C14.4057 38.4444 14.3806 38.0508 14.355 37.601C14.3492 37.0996 14.3505 36.5879 14.3596 36.0659C14.3866 34.4898 14.3993 33.6301 14.3977 33.4868L13.0425 33.4724C13.0458 33.7182 13.0451 33.9175 13.0393 34.0712C13.0235 34.6749 13.015 35.023 13.0163 35.1151C13.0266 36.0051 13.0573 36.89 13.1082 37.7692C13.1592 38.6488 13.2459 39.5278 13.3677 40.4062C12.7395 40.4853 12.1106 40.5287 11.4815 40.5364C10.8015 40.5445 10.1413 40.5063 9.50083 40.422C9.42365 39.8907 9.35532 39.27 9.2962 38.5595C9.23715 37.849 9.20122 36.9517 9.18829 35.8671C9.17595 34.8234 9.19732 33.8408 9.25261 32.9191C9.30763 31.9976 9.4104 31.0243 9.56067 29.9992C9.99691 29.9939 10.6006 29.9611 11.3714 29.901C13.227 29.756 14.5151 29.6789 15.2355 29.6704C16.1997 29.6589 16.8848 29.661 17.2912 29.6763C17.6971 29.6919 18.1539 29.7069 18.6618 29.7214C18.6625 29.7826 18.7164 30.9076 18.8234 33.0962C18.8902 34.4666 18.9285 35.5252 18.9371 36.2722ZM3.00962 34.7592C2.9223 35.0978 2.83279 35.4698 2.74132 35.8753C2.64959 36.2803 2.59437 36.5447 2.5754 36.6676C1.92367 36.481 1.46788 36.3407 1.20802 36.2466C0.948029 36.1524 0.644515 36.0256 0.297603 35.8662C0.393556 35.4045 0.485612 35.0198 0.57325 34.7117C0.660952 34.4037 0.763855 34.1057 0.882481 33.8178C1.36127 33.9553 1.78919 34.1139 2.1669 34.2934C2.42214 34.4132 2.70298 34.5685 3.00962 34.7592ZM8.00437 34.8376C8.02094 36.2389 7.5847 37.5541 6.69579 38.7825C5.80707 40.0109 4.56 40.9877 2.95472 41.7128C2.46378 41.3913 2.02345 41.0641 1.63379 40.7311C1.08003 40.2466 0.53531 39.68 0 39.0314C1.29462 38.6374 2.21647 38.0584 2.76561 37.2947C3.16521 36.7476 3.36076 36.1313 3.35283 35.4459C3.34257 34.5761 2.95765 33.793 2.1986 33.0959C1.61353 32.5605 0.903076 32.1395 0.0672388 31.8322C0.526865 31.2127 1.10362 30.6328 1.7977 30.0923C2.49159 29.5518 3.20224 29.1343 3.92965 28.8389C5.19438 29.3761 6.20426 30.244 6.95948 31.4427C7.64213 32.5293 7.99034 33.661 8.00437 34.8376ZM79.7126 34.7531C79.3583 35.5968 78.8074 36.2939 78.0627 36.8449C77.2478 37.4482 76.353 37.7556 75.3788 37.7673L75.6735 39.6592C75.3289 39.7045 75.0146 39.7338 74.7306 39.7474C74.4465 39.7611 74.1371 39.7698 73.8019 39.774C73.3861 39.7792 72.9622 39.7687 72.5307 39.7429C72.0987 39.7177 71.7304 39.6763 71.4255 39.6182C71.324 38.77 71.2457 37.9446 71.1908 37.1423C71.1354 36.3396 71.1017 35.4216 71.0895 34.3883C71.0772 33.3346 71.1045 32.4057 71.1709 31.6016C71.2376 30.7972 71.3923 29.9286 71.635 28.9945C71.9087 28.9499 72.1794 28.9163 72.4482 28.8926C72.7169 28.8688 73.0592 28.8543 73.4754 28.8493C74.5917 28.8359 75.5728 28.9522 76.4178 29.1978C77.5279 29.5225 78.4175 30.0746 79.0865 30.8543C79.416 31.2391 79.6771 31.6631 79.8703 32.1266C80.0635 32.5898 79.9818 32.9737 79.9882 33.5158C79.9948 34.0785 79.941 34.2088 79.7126 34.7531ZM77.1257 34.5687C77.1218 34.2689 76.9842 34.0222 76.7108 33.8276C76.4381 33.6339 75.9965 33.4851 75.3996 33.383L75.3414 34.754L75.3549 35.8784C76.03 35.7342 76.5145 35.5235 76.8091 35.2475C77.0231 35.0405 77.1286 34.8143 77.1257 34.5687Z" fill="#5E5E5F"/>
<path fill-rule="evenodd" clip-rule="evenodd" d="M37.06 16.9058L37.6103 17.163C37.5484 17.1879 36.9387 17.4004 36.5289 17.6126C37.3398 17.5871 38.4653 17.4373 39.69 16.8821C40.6062 16.4659 42.2339 15.7397 42.5094 15.1461C40.5923 14.9539 36.5187 15.1701 33.2964 16.9137C31.694 17.7818 30.493 18.7617 31.0338 19.3204C31.3611 19.4173 31.8207 19.4798 32.4389 19.4971C33.7307 19.5337 35.5129 19.416 37.3812 19.1043C39.2273 18.7956 41.2952 18.2694 43.4057 17.423C43.7509 17.2845 44.0992 17.1394 44.4465 16.9873C44.0886 17.1543 43.7303 17.3149 43.3745 17.4666C41.2631 18.367 39.1963 18.928 37.3492 19.256C35.4819 19.5894 33.6991 19.7147 32.4081 19.6762C31.3619 19.645 30.7665 19.4774 30.5083 19.2228C28.9587 18.7524 30.3037 17.4708 32.2272 16.3623C35.6855 14.3706 40.1225 14.2497 41.8252 14.53C42.2145 14.5942 42.4286 14.7009 42.5107 14.8356C42.8863 14.9215 43.0525 15.0567 43.069 15.2223C43.0695 15.2234 43.0711 15.2255 43.0711 15.2266C44.7662 15.5978 42.0651 16.8386 40.7585 17.3955C38.8209 18.2214 37.1288 18.0939 36.5431 18.0564C36.1193 18.0291 36.0876 17.924 36.2359 17.7957C36.9557 17.8364 38.498 17.8653 40.2392 17.123C40.4111 17.0498 40.606 16.9628 40.8117 16.8662C40.5947 16.9751 40.3892 17.0727 40.2087 17.1545C38.2702 18.0335 36.5783 17.8978 35.9929 17.8576C35.6247 17.8326 35.5529 17.7445 35.6373 17.6327C35.6769 17.3846 36.9976 16.927 37.0906 16.8896L36.5401 16.6327C36.4194 16.6849 34.2113 17.4989 35.4737 17.5853C35.5287 17.5886 35.594 17.593 35.6678 17.5975C35.9359 17.326 36.978 16.9412 37.06 16.9058ZM31.052 19.3375C31.3067 19.5804 31.9027 19.7405 32.9582 19.77C34.25 19.8066 36.0322 19.6889 37.9004 19.3771C39.7465 19.0683 41.8144 18.5422 43.925 17.6958C45.9162 16.898 48.019 15.851 49.355 14.8132C50.8253 13.672 51.3892 12.4947 49.769 11.8541C50.002 12.0201 50.1409 12.2074 50.1985 12.4107C50.2151 11.9367 49.9085 11.5237 49.1649 11.2252C48.9776 11.0935 48.7355 10.9751 48.4329 10.8733C46.4297 10.2002 42.6059 10.2177 37.997 11.0796C33.2887 11.9601 28.6264 13.5465 25.8178 15.6989C23.7014 17.3195 22.9579 19.0847 23.617 20.0437C23.8041 20.316 24.1227 20.5511 24.5842 20.7423C25.3422 21.2521 26.7871 21.5586 29.0574 21.5625C31.3999 21.5666 34.2916 21.3005 37.1314 20.7534C39.9406 20.2127 43.0545 19.3099 46.274 17.9953C46.8072 17.7776 47.3452 17.5524 47.8845 17.3184C47.3555 17.5334 46.8281 17.7412 46.3051 17.9417C43.0858 19.1762 39.972 20.024 37.1627 20.5315C34.3231 21.0452 31.4305 21.2946 29.0885 21.2906C27.2108 21.2873 25.8984 21.0902 25.071 20.7512C24.9087 20.6407 24.7805 20.5212 24.6863 20.3925C24.0278 19.4913 24.7717 17.812 26.8869 16.2898C29.6963 14.2681 34.3576 12.7795 39.0658 11.952C43.6751 11.1428 47.4986 11.1266 49.5018 11.7587C49.5469 11.7731 49.5899 11.7884 49.6323 11.8032C49.8554 12.4703 49.2767 13.3056 48.2854 14.1247C46.9493 15.2294 44.8472 16.3435 42.8553 17.1938C40.7438 18.0941 38.6771 18.6555 36.83 18.9832C34.9626 19.3166 33.1797 19.4418 31.8889 19.4038C31.5684 19.3936 31.2916 19.3711 31.052 19.3375ZM25.675 21.0577C26.5057 21.3761 27.7929 21.5603 29.6077 21.5635C31.9497 21.5675 34.8424 21.318 37.6821 20.8044C40.4912 20.2967 43.6051 19.4494 46.8244 18.2146C50.3136 16.8767 54.0233 15.2076 56.7726 13.3201C60.3211 10.8831 62.3866 7.34906 59.9667 5.2147C59.8787 5.13678 59.7856 5.06194 59.6895 4.9889C60.6685 7.169 58.7238 10.3034 55.7038 12.5106C52.9542 14.5207 49.244 16.2981 45.7547 17.7228C42.5353 19.0374 39.4214 19.9401 36.6121 20.4807C33.7724 21.0277 30.8805 21.2937 28.5382 21.2896C27.3722 21.2876 26.4245 21.2056 25.675 21.0577ZM58.5993 4.33814C54.9685 2.6265 47.9634 2.92605 39.122 4.7666C28.6216 6.9527 19.0612 10.165 16.062 14.6995L15.5988 14.3458C15.5805 14.3728 15.5607 14.3995 15.5428 14.4266L14.9927 14.0068C17.992 9.17947 27.5537 5.75922 38.0534 3.43097C47.2026 1.40283 54.3845 1.13133 57.897 3.1706C58.4911 3.45165 59.0011 3.7859 59.4182 4.17788C60.1974 4.90968 60.5097 5.75796 60.4588 6.65734C60.3574 6.04102 60.0353 5.46023 59.4474 4.94154C59.1974 4.72099 58.9135 4.52087 58.5993 4.33814ZM23.9696 18.7609C24.0957 18.3047 24.4064 17.8008 24.8998 17.2596C24.3774 17.8049 24.0671 18.3094 23.9696 18.7609ZM30.3901 18.6573C30.5501 18.1897 31.2005 17.6153 32.0626 17.0537C31.1386 17.6231 30.4638 18.2043 30.3901 18.6573Z" fill="#5E5E5F" stroke="#5E5E5F" stroke-width="2.30444" stroke-miterlimit="22.9256" stroke-linejoin="round"/>
</svg>
