<svg width="23" height="28" viewBox="0 0 23 28" fill="none" xmlns="http://www.w3.org/2000/svg">
<path d="M11.5 0.818176C5.152 0.818176 0 5.6785 0 11.6639C0 16.2092 6.164 23.4097 9.798 27.2799C10.258 27.775 10.856 28 11.5 28C12.144 28 12.742 27.73 13.202 27.2799C16.836 23.4097 23 16.2092 23 11.6639C23 5.6785 17.848 0.818176 11.5 0.818176ZM11.684 25.9299C11.592 26.0199 11.454 26.0199 11.316 25.9299C6.854 21.1595 2.07 14.9491 2.07 11.6639C2.07 6.80358 6.302 2.84331 11.5 2.84331C16.698 2.84331 20.93 6.80358 20.93 11.6639C20.93 14.9491 16.146 21.1595 11.684 25.9299Z" fill="white"/>
<path d="M11.5 7.07358C8.73999 7.07358 6.48599 9.27873 6.48599 11.9789C6.48599 14.6791 8.73999 16.9292 11.5 16.9292C14.26 16.9292 16.514 14.7241 16.514 12.0239C16.514 9.32373 14.26 7.07358 11.5 7.07358ZM11.5 14.9041C9.84399 14.9041 8.55599 13.599 8.55599 12.0239C8.55599 10.4488 9.88999 9.14372 11.5 9.14372C13.11 9.14372 14.444 10.4488 14.444 12.0239C14.444 13.599 13.156 14.9041 11.5 14.9041Z" fill="white"/>
</svg>
