<svg width="25" height="25" viewBox="0 0 25 25" fill="none" xmlns="http://www.w3.org/2000/svg">
<path d="M9.67905 2.89199L10.612 4.5637C11.4539 6.07233 11.116 8.05139 9.78988 9.37746C9.78988 9.37746 8.18158 10.986 11.0977 13.9023C14.013 16.8175 15.6225 15.2101 15.6225 15.2101C16.9486 13.884 18.9276 13.5461 20.4363 14.388L22.108 15.3209C24.3861 16.5923 24.6551 19.787 22.6528 21.7894C21.4496 22.9926 19.9756 23.9288 18.3462 23.9905C15.6033 24.0946 10.9451 23.4004 6.27232 18.7277C1.59963 14.0549 0.90543 9.39675 1.00942 6.65381C1.07119 5.02442 2.0074 3.55045 3.2106 2.34727C5.21297 0.344903 8.40768 0.613946 9.67905 2.89199Z" stroke="white" stroke-width="2" stroke-linecap="round"/>
</svg>
